<svg width="28" height="28" viewBox="0 0 28 28" fill="none" xmlns="http://www.w3.org/2000/svg">
<path opacity="0.22" d="M14 28C21.732 28 28 21.732 28 14C28 6.26801 21.732 0 14 0C6.26801 0 0 6.26801 0 14C0 21.732 6.26801 28 14 28Z" fill="#1D1D1D"/>
<path d="M4.85693 21.2579C5.5731 18.2446 7.39298 15.7534 9.78819 14.3891C8.64153 13.25 7.99628 11.6919 7.99828 10.0671C7.99828 6.71646 10.6851 4.00003 13.9993 4.00003C17.3134 4.00003 20.0003 6.71646 20.0003 10.0671C20.0023 11.6919 19.3571 13.25 18.2104 14.3891C20.6056 15.7534 22.4255 18.2446 23.1426 21.2579C20.9272 24.0764 17.5601 25.7173 13.9993 25.7143C10.4394 25.7173 7.07235 24.0764 4.85693 21.2579Z" fill="white"/>
</svg>
