<svg width="39" height="39" viewBox="0 0 39 39" fill="none" xmlns="http://www.w3.org/2000/svg">
<rect x="10" y="4" width="18" height="4" rx="1" fill="#D1D1D1"/>
<rect x="10" y="10" width="18" height="4" rx="1" fill="#D1D1D1"/>
<rect x="10" y="16" width="18" height="4" rx="1" fill="#D1D1D1"/>
<path d="M13.397 27.575C13.3457 27.7217 13.2723 27.8867 13.177 28.07H16.004V28.774C15.7327 29.302 15.3073 29.7787 14.728 30.204C15.3807 30.4973 16.1543 30.7467 17.049 30.952L16.51 31.733C15.4833 31.4543 14.5997 31.1207 13.859 30.732C13.0377 31.1427 12.0147 31.4873 10.79 31.766L10.339 30.93C11.439 30.7467 12.3337 30.5083 13.023 30.215C12.671 29.973 12.363 29.72 12.099 29.456C11.813 29.7127 11.4757 29.9657 11.087 30.215L10.515 29.456C11.4757 28.9133 12.1283 28.246 12.473 27.454L13.397 27.575ZM13.881 29.786C14.3357 29.4927 14.695 29.1737 14.959 28.829H12.682C12.6527 28.8583 12.638 28.8767 12.638 28.884C13.0047 29.2287 13.419 29.5293 13.881 29.786ZM11.747 32.745C13.2283 33.0163 14.6217 33.3867 15.927 33.856L15.586 34.692C14.2367 34.2007 12.825 33.812 11.351 33.526L11.747 32.745ZM12.869 31.26C13.7857 31.5313 14.5923 31.843 15.289 32.195L14.805 32.943C14.035 32.525 13.232 32.1913 12.396 31.942L12.869 31.26ZM18.248 26.387V36.133H17.225V35.748H10.075V36.133H9.052V26.387H18.248ZM10.075 34.824H17.225V27.311H10.075V34.824ZM22.04 26.101H23.052V29.808C23.3307 29.6393 23.6277 29.4377 23.943 29.203H24.46L23.734 28.554C24.4527 27.8353 24.9733 26.97 25.296 25.958L26.22 26.2L25.989 26.871H29.091V27.795H25.56C25.2447 28.367 24.8927 28.8363 24.504 29.203H24.801C25.6737 29.9657 27.1733 30.6403 29.3 31.227L28.728 32.107C28.1633 31.9457 27.6097 31.7623 27.067 31.557V31.997H24.889V32.69H28.585V33.581H24.889V34.989H25.978C26.2053 34.4903 26.385 34.0247 26.517 33.592L27.551 33.966C27.419 34.296 27.2503 34.637 27.045 34.989H28.915V35.913H19.763V34.989H21.633C21.4937 34.615 21.347 34.285 21.193 33.999L22.183 33.625C22.359 34.0283 22.524 34.483 22.678 34.989H23.811V33.581H20.082V32.69H23.811V31.997H21.677V31.535C21.171 31.7403 20.6027 31.931 19.972 32.107L19.422 31.238C20.7053 30.886 21.7907 30.479 22.678 30.017H22.04V26.101ZM19.895 26.552H20.874V29.742H19.895V26.552ZM26.682 28.026C27.2907 28.3927 27.859 28.8473 28.387 29.39L27.76 30.105C27.2467 29.5623 26.6673 29.071 26.022 28.631L26.682 28.026ZM26.11 31.139C25.4207 30.809 24.8413 30.446 24.372 30.05C23.8587 30.446 23.261 30.809 22.579 31.139H26.11Z" fill="#D1D1D1"/>
</svg>
