<svg width="39" height="39" viewBox="0 0 39 39" fill="none" xmlns="http://www.w3.org/2000/svg">
<path d="M14.397 27.575C14.3457 27.7217 14.2723 27.8867 14.177 28.07H17.004V28.774C16.7327 29.302 16.3073 29.7787 15.728 30.204C16.3807 30.4973 17.1543 30.7467 18.049 30.952L17.51 31.733C16.4833 31.4543 15.5997 31.1207 14.859 30.732C14.0377 31.1427 13.0147 31.4873 11.79 31.766L11.339 30.93C12.439 30.7467 13.3337 30.5083 14.023 30.215C13.671 29.973 13.363 29.72 13.099 29.456C12.813 29.7127 12.4757 29.9657 12.087 30.215L11.515 29.456C12.4757 28.9133 13.1283 28.246 13.473 27.454L14.397 27.575ZM14.881 29.786C15.3357 29.4927 15.695 29.1737 15.959 28.829H13.682C13.6527 28.8583 13.638 28.8767 13.638 28.884C14.0047 29.2287 14.419 29.5293 14.881 29.786ZM12.747 32.745C14.2283 33.0163 15.6217 33.3867 16.927 33.856L16.586 34.692C15.2367 34.2007 13.825 33.812 12.351 33.526L12.747 32.745ZM13.869 31.26C14.7857 31.5313 15.5923 31.843 16.289 32.195L15.805 32.943C15.035 32.525 14.232 32.1913 13.396 31.942L13.869 31.26ZM19.248 26.387V36.133H18.225V35.748H11.075V36.133H10.052V26.387H19.248ZM11.075 34.824H18.225V27.311H11.075V34.824ZM23.04 26.101H24.052V29.808C24.3307 29.6393 24.6277 29.4377 24.943 29.203H25.46L24.734 28.554C25.4527 27.8353 25.9733 26.97 26.296 25.958L27.22 26.2L26.989 26.871H30.091V27.795H26.56C26.2447 28.367 25.8927 28.8363 25.504 29.203H25.801C26.6737 29.9657 28.1733 30.6403 30.3 31.227L29.728 32.107C29.1633 31.9457 28.6097 31.7623 28.067 31.557V31.997H25.889V32.69H29.585V33.581H25.889V34.989H26.978C27.2053 34.4903 27.385 34.0247 27.517 33.592L28.551 33.966C28.419 34.296 28.2503 34.637 28.045 34.989H29.915V35.913H20.763V34.989H22.633C22.4937 34.615 22.347 34.285 22.193 33.999L23.183 33.625C23.359 34.0283 23.524 34.483 23.678 34.989H24.811V33.581H21.082V32.69H24.811V31.997H22.677V31.535C22.171 31.7403 21.6027 31.931 20.972 32.107L20.422 31.238C21.7053 30.886 22.7907 30.479 23.678 30.017H23.04V26.101ZM20.895 26.552H21.874V29.742H20.895V26.552ZM27.682 28.026C28.2907 28.3927 28.859 28.8473 29.387 29.39L28.76 30.105C28.2467 29.5623 27.6673 29.071 27.022 28.631L27.682 28.026ZM27.11 31.139C26.4207 30.809 25.8413 30.446 25.372 30.05C24.8587 30.446 24.261 30.809 23.579 31.139H27.11Z" fill="#1FA1FF"/>
<rect x="10" y="4" width="18" height="4" rx="1" fill="#1FA1FF"/>
<rect x="10" y="10" width="18" height="4" rx="1" fill="#1FA1FF"/>
<rect x="10" y="16" width="18" height="4" rx="1" fill="#1FA1FF"/>
<path d="M26.5 10.3L32.1292 20.05H20.8708L26.5 10.3Z" fill="url(#paint0_linear_834_2596)"/>
<defs>
<linearGradient id="paint0_linear_834_2596" x1="26.5" y1="9" x2="26.5" y2="19.5" gradientUnits="userSpaceOnUse">
<stop stop-color="#BCE3FF" stop-opacity="0"/>
<stop offset="0.640632" stop-color="#BCE3FF"/>
</linearGradient>
</defs>
</svg>
