<svg width="40" height="40" viewBox="0 0 40 40" fill="none" xmlns="http://www.w3.org/2000/svg">
<path d="M16.948 26.057H18.004V29.203H20.435V30.226H18.004V34.736H20.688V35.759H14.198V34.736H16.948V30.226H14.583V29.203H16.948V26.057ZM12.196 31.81C11.8 32.206 11.371 32.591 10.909 32.965L10.579 31.865C12.031 30.6843 13.0063 29.5367 13.505 28.422H10.843V27.421H12.394C12.2473 27.047 12.0713 26.6437 11.866 26.211L12.856 25.936C13.1053 26.5373 13.285 27.0323 13.395 27.421H14.561V28.301C14.2823 29.0783 13.8497 29.8483 13.263 30.611C13.923 30.9923 14.4987 31.3957 14.99 31.821L14.396 32.723C14.022 32.3417 13.6297 31.997 13.219 31.689V36.111H12.196V31.81ZM24.612 28.147C25.6313 28.9243 26.537 29.6613 27.329 30.358C27.9083 29.5953 28.4033 28.7337 28.814 27.773L29.76 28.279C29.298 29.3423 28.759 30.2773 28.143 31.084C28.9423 31.81 29.672 32.5397 30.332 33.273L29.518 34.087C28.8947 33.3463 28.2017 32.6167 27.439 31.898C26.5297 32.8733 25.4553 33.6287 24.216 34.164L23.611 33.218C24.777 32.7413 25.7853 32.0557 26.636 31.161C25.844 30.4497 24.9163 29.6907 23.853 28.884L24.612 28.147ZM22.027 26.398H30.849V27.399H23.028V34.692H31.19V35.693H22.027V26.398Z" fill="#D1D1D1"/>
<path d="M20.5007 3C25.7172 3 30 6.82459 30 11.568C30 16.3019 25.7145 20.1245 20.5 20.1245C19.968 20.1245 19.4515 20.0844 18.9575 20.005C18.835 19.9889 18.7106 20.014 18.6039 20.0763L15.713 21.8827C15.5964 21.9557 15.4624 21.9961 15.3248 21.9997C15.1873 22.0034 15.0513 21.9701 14.931 21.9034C14.8107 21.8367 14.7105 21.739 14.6407 21.6204C14.5709 21.5019 14.5342 21.3668 14.5343 21.2292V18.5081C14.5359 18.4215 14.5178 18.3357 14.4814 18.2571C14.4449 18.1786 14.3911 18.1094 14.3239 18.0548C12.2161 16.4288 11 14.0578 11 11.5565C11 6.82256 15.2855 3 20.5007 3Z" fill="#D1D1D1"/>
</svg>
