<svg width="30" height="30" viewBox="0 0 30 30" fill="none" xmlns="http://www.w3.org/2000/svg">
<path d="M14.5007 5C19.7172 5 24 8.82459 24 13.568C24 18.3019 19.7145 22.1245 14.5 22.1245C13.968 22.1245 13.4515 22.0844 12.9575 22.005C12.835 21.9889 12.7106 22.014 12.6039 22.0763L9.71302 23.8827C9.59639 23.9557 9.46236 23.9961 9.32484 23.9997C9.18732 24.0034 9.05133 23.9701 8.93102 23.9034C8.81071 23.8367 8.71045 23.739 8.64068 23.6204C8.5709 23.5019 8.53415 23.3668 8.53425 23.2292V20.5081C8.53592 20.4215 8.51784 20.3357 8.48139 20.2571C8.44494 20.1786 8.39107 20.1094 8.32388 20.0548C6.21609 18.4288 5 16.0578 5 13.5565C5 8.82256 9.28549 5 14.5007 5Z" fill="#1FA1FF"/>
<ellipse cx="21" cy="10.5" rx="6" ry="5.5" fill="url(#paint0_linear_855_2587)"/>
<defs>
<linearGradient id="paint0_linear_855_2587" x1="22" y1="8" x2="14" y2="14" gradientUnits="userSpaceOnUse">
<stop offset="0.317165" stop-color="#BCE3FF"/>
<stop offset="0.869877" stop-color="#BCE3FF" stop-opacity="0"/>
</linearGradient>
</defs>
</svg>
