<svg width="16" height="16" viewBox="0 0 16 16" fill="none" xmlns="http://www.w3.org/2000/svg">
<path d="M14 6.66667V13.3333C14 13.5101 13.9298 13.6797 13.8047 13.8047C13.6797 13.9298 13.5101 14 13.3333 14H6.66667C6.48986 14 6.32029 13.9298 6.19526 13.8047C6.07024 13.6797 6 13.5101 6 13.3333V6.66667C6 6.48986 6.07024 6.32029 6.19526 6.19526C6.32029 6.07024 6.48986 6 6.66667 6H13.3333C13.5101 6 13.6797 6.07024 13.8047 6.19526C13.9298 6.32029 14 6.48986 14 6.66667ZM4 9.33333H3.33333V3.33333H9.33333V4C9.33333 4.17681 9.40357 4.34638 9.5286 4.4714C9.65362 4.59643 9.82319 4.66667 10 4.66667C10.1768 4.66667 10.3464 4.59643 10.4714 4.4714C10.5964 4.34638 10.6667 4.17681 10.6667 4V2.66667C10.6667 2.48986 10.5964 2.32029 10.4714 2.19526C10.3464 2.07024 10.1768 2 10 2H2.66667C2.48986 2 2.32029 2.07024 2.19526 2.19526C2.07024 2.32029 2 2.48986 2 2.66667V10C2 10.1768 2.07024 10.3464 2.19526 10.4714C2.32029 10.5964 2.48986 10.6667 2.66667 10.6667H4C4.17681 10.6667 4.34638 10.5964 4.4714 10.4714C4.59643 10.3464 4.66667 10.1768 4.66667 10C4.66667 9.82319 4.59643 9.65362 4.4714 9.5286C4.34638 9.40357 4.17681 9.33333 4 9.33333Z" fill="#D1D1D1"/>
</svg>
