<svg width="39" height="37" viewBox="0 0 39 37" fill="none" xmlns="http://www.w3.org/2000/svg">
<path fill-rule="evenodd" clip-rule="evenodd" d="M6.01963 15.2976C6.01992 15.2865 6.02007 15.2753 6.02007 15.2641C6.02007 14.556 5.43709 13.9787 4.6852 13.9787H4.67338L1.95873 13.9865C1.88883 13.9774 1.81765 13.9722 1.74509 13.9722C0.791394 13.9722 0.014484 14.7439 0.014484 15.6924L0 34.3431C0 35.2955 0.759722 36.0406 1.73061 36.0406L1.80573 36.0431L1.8096 36.0433C1.83988 36.0445 1.86897 36.0457 1.89676 36.0457C1.93366 36.0457 1.97065 36.0444 1.97858 36.0406L4.66279 36.0444C4.68786 36.0444 4.7116 36.0392 4.7116 36.0392L4.70638 36.0417L4.87524 36.0353V36.0184C5.48072 35.92 5.9344 35.4094 5.9344 34.7952C5.9344 34.7346 5.93 34.675 5.9215 34.6168L6.02007 15.2977L6.01963 15.2976Z" fill="#939393"/>
<path d="M37.3564 14.675C36.5543 13.3719 35.3642 12.7063 33.7329 12.6404C33.6499 12.6294 33.5654 12.6223 33.4785 12.6223L24.8521 12.5938C25.4425 10.8211 25.7658 8.91524 25.7658 7.20268C25.7658 6.00552 25.6333 4.80068 25.3738 3.62105L25.3206 3.48063L25.3167 3.48131C24.7807 1.42405 22.9599 0 20.838 0C18.3968 0 16.5553 2.03137 16.5553 4.72508L16.5527 4.85893C16.5502 4.95655 16.5475 5.05224 16.5553 5.12987C16.4321 9.59753 12.8592 13.3609 8.24552 13.8848L8.09751 13.901L8.06382 25.9549V35.991L8.67773 35.9912L8.70361 35.9961L8.84373 35.9949L8.84441 35.9913L30.2471 36L30.6299 35.9896C31.5046 35.9896 31.9977 35.7684 32.7726 35.2717C33.4876 34.8113 34.0665 34.1619 34.4363 33.413C34.5492 33.2475 34.631 33.0677 34.6816 32.8749L38.0001 18.0879C38.0481 17.9023 38.065 17.7082 38.0507 17.5362C38.1246 16.5253 37.8846 15.5359 37.3564 14.675Z" fill="#939393"/>
</svg>
