<svg width="39" height="36" viewBox="0 0 39 36" fill="none" xmlns="http://www.w3.org/2000/svg">
<path d="M37.356 14.675C36.554 13.3719 35.3639 12.7063 33.7325 12.6404C33.6495 12.6294 33.5651 12.6223 33.4782 12.6223L24.8517 12.5938C25.4422 10.8211 25.7654 8.91524 25.7654 7.20268C25.7654 6.00552 25.633 4.80068 25.3734 3.62105L25.3203 3.48063L25.3163 3.48131C24.7804 1.42405 22.9596 0 20.8377 0C18.3965 0 16.555 2.03137 16.555 4.72508L16.5523 4.85893C16.5498 4.95655 16.5472 5.05224 16.555 5.12987C16.4317 9.59753 12.8589 13.3609 8.24517 13.8848L8.09716 13.901L8.06348 25.9549V35.991L8.67738 35.9912L8.70327 35.9961L8.84338 35.9949L8.84406 35.9913L30.2467 36L30.6295 35.9896C31.5043 35.9896 31.9974 35.7684 32.7723 35.2717C33.4873 34.8113 34.0661 34.1619 34.436 33.413C34.5489 33.2475 34.6307 33.0677 34.6813 32.8749L37.9998 18.0879C38.0478 17.9023 38.0646 17.7082 38.0504 17.5362C38.1243 16.5253 37.8842 15.5359 37.356 14.675ZM35.6338 16.9813L35.5936 17.1481L35.6066 17.1514L32.0753 32.7546L32.0688 32.7701C31.9676 33.0133 31.7976 33.2164 31.5795 33.3561C31.429 33.4531 31.2629 33.5152 31.0877 33.5423C31.0669 33.5398 31.0462 33.5398 31.0254 33.5398L30.8917 33.5436L10.4943 33.5203L10.4865 16.2893C13.9918 14.7087 17.0157 13.0408 18.5548 8.91906L18.5679 8.92234L18.6172 8.77613C18.7807 8.2814 18.9079 7.79445 18.9961 7.33064C19.2362 6.07541 19.2259 4.85241 19.2246 4.78126C19.1467 4.18819 19.2777 3.69467 19.6126 3.31447C19.9916 2.885 20.5678 2.6929 20.9675 2.6929C21.9629 2.72656 22.9739 4.05303 22.9778 4.80841C22.9791 4.82009 23.2153 5.99195 23.2166 7.23239C23.2191 8.44694 23.0997 9.2211 23.0465 9.50885H23.0245L22.9985 9.64338C22.7519 10.9401 22.3146 12.1819 21.702 13.3331L21.6592 13.4585L21.6644 13.4643C21.5813 13.6706 21.5385 13.8879 21.5385 14.1104C21.5385 15.2099 22.7338 15.2099 23.3761 15.2099L33.6612 15.2215L33.9766 15.2312C34.0324 15.2331 34.0869 15.2351 34.1349 15.2364V15.2551L34.379 15.2442C34.8396 15.2442 35.2576 15.4789 35.4989 15.8721C35.7026 16.2026 35.7519 16.6069 35.6338 16.9813Z" fill="#B8B8B8"/>
<path fill-rule="evenodd" clip-rule="evenodd" d="M6.01963 15.2519C6.01992 15.2407 6.02007 15.2296 6.02007 15.2184C6.02007 14.5103 5.43709 13.933 4.6852 13.933H4.67338L1.95873 13.9407C1.88883 13.9316 1.81765 13.9264 1.74509 13.9264C0.791394 13.9264 0.014484 14.6981 0.014484 15.6467L0 34.2973C0 35.2498 0.759722 35.9949 1.73061 35.9949L1.80573 35.9974L1.80973 35.9976C1.83996 35.9988 1.86901 36 1.89676 36C1.93366 36 1.97065 35.9987 1.97858 35.9948L4.66279 35.9986C4.68786 35.9986 4.7116 35.9935 4.7116 35.9935L4.70638 35.996L4.87524 35.9895V35.9727C5.48072 35.8742 5.9344 35.3636 5.9344 34.7494C5.9344 34.6889 5.93 34.6293 5.9215 34.571L6.02007 15.2519L6.01963 15.2519Z" fill="#B8B8B8"/>
</svg>
