<svg width="22" height="23" viewBox="0 0 22 23" fill="none" xmlns="http://www.w3.org/2000/svg">
<path d="M20.4801 9.2125H14.4316C16.7753 0.44766 12.8167 0 12.8167 0C11.1389 0 11.4867 1.34338 11.3598 1.56732C11.3598 5.85372 6.86352 9.2125 6.86352 9.2125V21.368C6.86352 22.5679 8.47839 23 9.11187 23H18.1998C19.0551 23 19.7516 20.7288 19.7516 20.7288C22 12.9875 22 10.6841 22 10.6841C22 9.08471 20.4801 9.2125 20.4801 9.2125ZM4.38136 9.21653H0.759509C0.0115254 9.21653 0 9.96043 0 9.96043L0.747983 22.2197C0.747983 23 1.5199 23 1.5199 23H4.65464C5.30769 23 5.30191 22.4838 5.30191 22.4838V10.1462C5.30191 9.20463 4.38136 9.21653 4.38136 9.21653Z" fill="#C8C8C8"/>
</svg>
