<svg width="39" height="39" viewBox="0 0 39 39" fill="none" xmlns="http://www.w3.org/2000/svg">
<path d="M10.065 10.2414C9.639 12.3103 9.1775 18.2759 9 20H29C29 17.8906 28.7561 12.8438 28.2683 10.2414C27.7949 7.71567 26.6721 4.2069 26.3171 3L22.8449 6.10345C22.3124 5.93103 20.8214 5.58621 19.1174 5.58621C17.4134 5.58621 15.9225 5.93103 15.39 6.10345L12.195 3C11.6625 4.55172 10.491 8.17241 10.065 10.2414Z" fill="#D1D1D1"/>
<path d="M13.771 32.074C13.287 32.2353 12.66 32.4187 11.89 32.624V34.923C11.89 35.6343 11.5197 35.99 10.779 35.99H9.547L9.316 34.989C9.70467 35.033 10.0713 35.055 10.416 35.055C10.6947 35.055 10.834 34.923 10.834 34.659V32.866C10.0933 33.0273 9.415 33.1557 8.799 33.251L8.656 32.206C9.41867 32.0813 10.1447 31.9493 10.834 31.81V29.841H8.656V28.84H10.834V27.674C10.4233 27.7547 9.85867 27.85 9.14 27.96L8.92 26.97C10.4747 26.8013 11.8387 26.4787 13.012 26.002L13.375 26.981C12.9057 27.1423 12.4107 27.2963 11.89 27.443V28.84H14.266C14.2 27.982 14.167 27.036 14.167 26.002H15.223C15.223 27.08 15.256 28.026 15.322 28.84H18.644V29.841H15.41C15.476 30.567 15.575 31.172 15.707 31.656C15.7437 31.8173 15.795 32.008 15.861 32.228C16.345 31.6487 16.7593 30.9997 17.104 30.281L18.006 30.754C17.5073 31.7733 16.9207 32.6423 16.246 33.361C16.4 33.6983 16.5283 33.9477 16.631 34.109C16.961 34.6077 17.214 34.857 17.39 34.857C17.5367 34.857 17.6797 34.285 17.819 33.141L18.743 33.625C18.4643 35.1943 18.061 35.979 17.533 35.979C17.0637 35.979 16.5687 35.6527 16.048 35C15.828 34.7287 15.641 34.4243 15.487 34.087C14.717 34.7323 13.8663 35.2347 12.935 35.594L12.352 34.692C13.386 34.318 14.288 33.779 15.058 33.075C14.9333 32.7377 14.8197 32.36 14.717 31.942C14.563 31.348 14.442 30.6477 14.354 29.841H11.89V31.568C12.55 31.392 13.177 31.205 13.771 31.007V32.074ZM16.433 26.101C17.203 26.585 17.8667 27.08 18.424 27.586L17.665 28.334C17.203 27.85 16.5577 27.3293 15.729 26.772L16.433 26.101ZM23.393 27.795V35.451H22.392V34.879H20.654V35.77H19.653V27.795H20.698C20.9107 27.157 21.0573 26.5447 21.138 25.958L22.183 26.101C22.0803 26.6803 21.919 27.245 21.699 27.795H23.393ZM20.654 33.911H22.392V31.744H20.654V33.911ZM20.654 30.809H22.392V28.785H20.654V30.809ZM25.373 30.435C26.1283 31.3663 26.6857 32.1547 27.045 32.8L26.22 33.383C25.8313 32.7083 25.2667 31.9017 24.526 30.963L25.373 30.435ZM29.069 27.806C29.069 31.6047 29.014 33.944 28.904 34.824C28.794 35.616 28.2697 36.012 27.331 36.012C27.1623 36.012 26.7737 35.9937 26.165 35.957L25.912 35C26.5573 35.0293 26.9753 35.044 27.166 35.044C27.606 35.044 27.859 34.813 27.925 34.351C27.9837 33.867 28.024 32.0227 28.046 28.818H25.285C24.9623 29.5 24.603 30.105 24.207 30.633L23.58 29.808C24.3133 28.7373 24.812 27.4503 25.076 25.947L26.11 26.079C26.0073 26.6363 25.8607 27.212 25.67 27.806H29.069Z" fill="#D1D1D1"/>
</svg>
