<svg width="40" height="40" viewBox="0 0 40 40" fill="none" xmlns="http://www.w3.org/2000/svg">
<path d="M14.771 33.074C14.287 33.2353 13.66 33.4187 12.89 33.624V35.923C12.89 36.6343 12.5197 36.99 11.779 36.99H10.547L10.316 35.989C10.7047 36.033 11.0713 36.055 11.416 36.055C11.6947 36.055 11.834 35.923 11.834 35.659V33.866C11.0933 34.0273 10.415 34.1557 9.799 34.251L9.656 33.206C10.4187 33.0813 11.1447 32.9493 11.834 32.81V30.841H9.656V29.84H11.834V28.674C11.4233 28.7547 10.8587 28.85 10.14 28.96L9.92 27.97C11.4747 27.8013 12.8387 27.4787 14.012 27.002L14.375 27.981C13.9057 28.1423 13.4107 28.2963 12.89 28.443V29.84H15.266C15.2 28.982 15.167 28.036 15.167 27.002H16.223C16.223 28.08 16.256 29.026 16.322 29.84H19.644V30.841H16.41C16.476 31.567 16.575 32.172 16.707 32.656C16.7437 32.8173 16.795 33.008 16.861 33.228C17.345 32.6487 17.7593 31.9997 18.104 31.281L19.006 31.754C18.5073 32.7733 17.9207 33.6423 17.246 34.361C17.4 34.6983 17.5283 34.9477 17.631 35.109C17.961 35.6077 18.214 35.857 18.39 35.857C18.5367 35.857 18.6797 35.285 18.819 34.141L19.743 34.625C19.4643 36.1943 19.061 36.979 18.533 36.979C18.0637 36.979 17.5687 36.6527 17.048 36C16.828 35.7287 16.641 35.4243 16.487 35.087C15.717 35.7323 14.8663 36.2347 13.935 36.594L13.352 35.692C14.386 35.318 15.288 34.779 16.058 34.075C15.9333 33.7377 15.8197 33.36 15.717 32.942C15.563 32.348 15.442 31.6477 15.354 30.841H12.89V32.568C13.55 32.392 14.177 32.205 14.771 32.007V33.074ZM17.433 27.101C18.203 27.585 18.8667 28.08 19.424 28.586L18.665 29.334C18.203 28.85 17.5577 28.3293 16.729 27.772L17.433 27.101ZM24.393 28.795V36.451H23.392V35.879H21.654V36.77H20.653V28.795H21.698C21.9107 28.157 22.0573 27.5447 22.138 26.958L23.183 27.101C23.0803 27.6803 22.919 28.245 22.699 28.795H24.393ZM21.654 34.911H23.392V32.744H21.654V34.911ZM21.654 31.809H23.392V29.785H21.654V31.809ZM26.373 31.435C27.1283 32.3663 27.6857 33.1547 28.045 33.8L27.22 34.383C26.8313 33.7083 26.2667 32.9017 25.526 31.963L26.373 31.435ZM30.069 28.806C30.069 32.6047 30.014 34.944 29.904 35.824C29.794 36.616 29.2697 37.012 28.331 37.012C28.1623 37.012 27.7737 36.9937 27.165 36.957L26.912 36C27.5573 36.0293 27.9753 36.044 28.166 36.044C28.606 36.044 28.859 35.813 28.925 35.351C28.9837 34.867 29.024 33.0227 29.046 29.818H26.285C25.9623 30.5 25.603 31.105 25.207 31.633L24.58 30.808C25.3133 29.7373 25.812 28.4503 26.076 26.947L27.11 27.079C27.0073 27.6363 26.8607 28.212 26.67 28.806H30.069Z" fill="#1FA1FF"/>
<path d="M11.065 11.2414C10.639 13.3103 10.1775 19.2759 10 21H30C30 18.8906 29.7561 13.8438 29.2683 11.2414C28.7949 8.71567 27.6721 5.2069 27.3171 4L23.8449 7.10345C23.3124 6.93103 21.8214 6.58621 20.1174 6.58621C18.4134 6.58621 16.9225 6.93103 16.39 7.10345L13.195 4C12.6625 5.55172 11.491 9.17241 11.065 11.2414Z" fill="#1FA1FF"/>
<ellipse cx="24" cy="13" rx="1.5" ry="2" fill="url(#paint0_linear_834_2610)"/>
<ellipse cx="16" cy="13" rx="1.5" ry="2" fill="url(#paint1_linear_834_2610)"/>
<defs>
<linearGradient id="paint0_linear_834_2610" x1="24" y1="11.6667" x2="24" y2="15.6667" gradientUnits="userSpaceOnUse">
<stop offset="0.467067" stop-color="#BCE3FF"/>
<stop offset="1" stop-color="#BCE3FF" stop-opacity="0"/>
</linearGradient>
<linearGradient id="paint1_linear_834_2610" x1="16" y1="11.6667" x2="16" y2="15.6667" gradientUnits="userSpaceOnUse">
<stop offset="0.467067" stop-color="#BCE3FF"/>
<stop offset="1" stop-color="#BCE3FF" stop-opacity="0"/>
</linearGradient>
</defs>
</svg>
