<svg width="40" height="40" viewBox="0 0 40 40" fill="none" xmlns="http://www.w3.org/2000/svg">
<rect x="10" y="4" width="18" height="4" rx="1" fill="#D1D1D1"/>
<rect x="10" y="10" width="18" height="4" rx="1" fill="#D1D1D1"/>
<rect x="10" y="16" width="18" height="4" rx="1" fill="#D1D1D1"/>
<path d="M13.298 27.531C13.1953 27.7803 13.1 27.982 13.012 28.136H15.916V28.686C15.6007 29.28 15.135 29.7933 14.519 30.226C15.289 30.5927 16.1287 30.8823 17.038 31.095L16.62 31.689C15.5493 31.403 14.6327 31.0473 13.87 30.622C13.0193 31.0767 11.9707 31.4397 10.724 31.711L10.372 31.073C11.5013 30.875 12.4547 30.5927 13.232 30.226C12.792 29.9327 12.4217 29.6247 12.121 29.302C11.791 29.61 11.417 29.896 10.999 30.16L10.559 29.588C11.5637 28.994 12.242 28.279 12.594 27.443L13.298 27.531ZM13.87 29.885C14.4127 29.555 14.8307 29.17 15.124 28.73H12.627C12.583 28.774 12.55 28.818 12.528 28.862C12.9093 29.2287 13.3567 29.5697 13.87 29.885ZM11.692 32.844C13.144 33.1153 14.5483 33.5077 15.905 34.021L15.641 34.659C14.277 34.131 12.858 33.724 11.384 33.438L11.692 32.844ZM12.836 31.304C13.672 31.5827 14.4603 31.9273 15.201 32.338L14.827 32.91C14.0863 32.4627 13.3017 32.1033 12.473 31.832L12.836 31.304ZM18.138 26.497V36.1H17.368V35.649H9.932V36.1H9.162V26.497H18.138ZM9.932 34.945H17.368V27.201H9.932V34.945ZM22.161 26.134H22.931V29.984H22.161V26.134ZM20.016 26.585H20.753V29.709H20.016V26.585ZM25.483 27.685C25.1603 28.2863 24.779 28.7923 24.339 29.203L23.778 28.697C24.504 27.9783 25.0467 27.0727 25.406 25.98L26.11 26.167C26.0147 26.4677 25.9157 26.739 25.813 26.981H29.058V27.685H25.483ZM26.583 28.07C27.2063 28.4513 27.793 28.9317 28.343 29.511L27.859 30.061C27.331 29.489 26.7333 28.9793 26.066 28.532L26.583 28.07ZM21.71 31.425C21.138 31.6523 20.5257 31.8613 19.873 32.052L19.455 31.392C21.4203 30.8493 22.9493 30.1307 24.042 29.236H24.702C25.582 30.0427 27.1037 30.754 29.267 31.37L28.849 32.041C28.1157 31.821 27.5107 31.6157 27.034 31.425V31.898H24.757V32.789H28.552V33.482H24.757V35.099H26.055C26.3043 34.6223 26.5133 34.131 26.682 33.625L27.463 33.911C27.287 34.351 27.089 34.747 26.869 35.099H28.882V35.803H19.796V35.099H21.787C21.6477 34.7103 21.4753 34.329 21.27 33.955L22.018 33.669C22.2087 34.0503 22.3957 34.527 22.579 35.099H23.943V33.482H20.115V32.789H23.943V31.898H21.71V31.425ZM26.594 31.238C25.6627 30.8127 24.922 30.3653 24.372 29.896C23.69 30.4167 22.9457 30.864 22.139 31.238H26.594Z" fill="#D1D1D1"/>
</svg>
