<svg width="40" height="40" viewBox="0 0 40 40" fill="none" xmlns="http://www.w3.org/2000/svg">
<path d="M14.298 27.531C14.1953 27.7803 14.1 27.982 14.012 28.136H16.916V28.686C16.6007 29.28 16.135 29.7933 15.519 30.226C16.289 30.5927 17.1287 30.8823 18.038 31.095L17.62 31.689C16.5493 31.403 15.6327 31.0473 14.87 30.622C14.0193 31.0767 12.9707 31.4397 11.724 31.711L11.372 31.073C12.5013 30.875 13.4547 30.5927 14.232 30.226C13.792 29.9327 13.4217 29.6247 13.121 29.302C12.791 29.61 12.417 29.896 11.999 30.16L11.559 29.588C12.5637 28.994 13.242 28.279 13.594 27.443L14.298 27.531ZM14.87 29.885C15.4127 29.555 15.8307 29.17 16.124 28.73H13.627C13.583 28.774 13.55 28.818 13.528 28.862C13.9093 29.2287 14.3567 29.5697 14.87 29.885ZM12.692 32.844C14.144 33.1153 15.5483 33.5077 16.905 34.021L16.641 34.659C15.277 34.131 13.858 33.724 12.384 33.438L12.692 32.844ZM13.836 31.304C14.672 31.5827 15.4603 31.9273 16.201 32.338L15.827 32.91C15.0863 32.4627 14.3017 32.1033 13.473 31.832L13.836 31.304ZM19.138 26.497V36.1H18.368V35.649H10.932V36.1H10.162V26.497H19.138ZM10.932 34.945H18.368V27.201H10.932V34.945ZM23.161 26.134H23.931V29.984H23.161V26.134ZM21.016 26.585H21.753V29.709H21.016V26.585ZM26.483 27.685C26.1603 28.2863 25.779 28.7923 25.339 29.203L24.778 28.697C25.504 27.9783 26.0467 27.0727 26.406 25.98L27.11 26.167C27.0147 26.4677 26.9157 26.739 26.813 26.981H30.058V27.685H26.483ZM27.583 28.07C28.2063 28.4513 28.793 28.9317 29.343 29.511L28.859 30.061C28.331 29.489 27.7333 28.9793 27.066 28.532L27.583 28.07ZM22.71 31.425C22.138 31.6523 21.5257 31.8613 20.873 32.052L20.455 31.392C22.4203 30.8493 23.9493 30.1307 25.042 29.236H25.702C26.582 30.0427 28.1037 30.754 30.267 31.37L29.849 32.041C29.1157 31.821 28.5107 31.6157 28.034 31.425V31.898H25.757V32.789H29.552V33.482H25.757V35.099H27.055C27.3043 34.6223 27.5133 34.131 27.682 33.625L28.463 33.911C28.287 34.351 28.089 34.747 27.869 35.099H29.882V35.803H20.796V35.099H22.787C22.6477 34.7103 22.4753 34.329 22.27 33.955L23.018 33.669C23.2087 34.0503 23.3957 34.527 23.579 35.099H24.943V33.482H21.115V32.789H24.943V31.898H22.71V31.425ZM27.594 31.238C26.6627 30.8127 25.922 30.3653 25.372 29.896C24.69 30.4167 23.9457 30.864 23.139 31.238H27.594Z" fill="#1FA1FF"/>
<rect x="10" y="4" width="18" height="4" rx="1" fill="#1FA1FF"/>
<rect x="10" y="10" width="18" height="4" rx="1" fill="#1FA1FF"/>
<rect x="10" y="16" width="18" height="4" rx="1" fill="#1FA1FF"/>
<path d="M26.5 10.3L32.1292 20.05H20.8708L26.5 10.3Z" fill="url(#paint0_linear_325_2889)"/>
<defs>
<linearGradient id="paint0_linear_325_2889" x1="26.5" y1="9" x2="26.5" y2="19.5" gradientUnits="userSpaceOnUse">
<stop stop-color="#BCE3FF" stop-opacity="0"/>
<stop offset="0.640632" stop-color="#BCE3FF"/>
</linearGradient>
</defs>
</svg>
