<svg width="181" height="237" viewBox="0 0 181 237" fill="none" xmlns="http://www.w3.org/2000/svg">
<rect width="181" height="237" rx="14" fill="white"/>
<path d="M30.2137 36.864V54H27.4057V40.248C26.3657 41.192 25.0617 41.888 23.4937 42.336V39.552C24.2457 39.36 25.0697 39.024 25.9657 38.544C26.8137 38.032 27.5257 37.472 28.1017 36.864H30.2137Z" fill="#1FA1FF"/>
<path d="M93.72 45.472C94.84 44.016 95.944 42.24 96.824 40.496L95.864 39.936C95.592 40.56 95.256 41.184 94.936 41.76L93.176 41.952C94.072 40.56 94.952 38.768 95.608 37.024L94.472 36.608C93.912 38.56 92.824 40.64 92.504 41.168C92.184 41.712 91.928 42.112 91.656 42.176C91.784 42.464 91.976 43.024 92.04 43.248C92.248 43.136 92.616 43.056 94.328 42.816C93.704 43.84 93.144 44.656 92.888 44.96C92.44 45.552 92.088 45.952 91.784 46.016C91.912 46.304 92.072 46.832 92.12 47.056C92.424 46.88 92.92 46.704 96.44 45.888C96.392 45.664 96.36 45.248 96.36 44.928L93.72 45.472ZM96.344 47.36C94.6 48.032 92.856 48.72 91.704 49.088L91.992 50.192C93.288 49.664 94.952 48.976 96.552 48.32L96.344 47.36ZM104.568 39.344V41.056H98.728V39.344H104.568ZM105.672 42.064V38.336H102.616C102.456 37.808 102.12 37.072 101.784 36.512L100.664 36.848C100.92 37.296 101.176 37.856 101.352 38.336H97.64V41.792C97.64 44.224 97.496 47.744 96.056 50.288C96.312 50.416 96.776 50.752 96.968 50.96C98.44 48.384 98.712 44.656 98.728 42.064H105.672ZM103.704 46.736V44.4H104.888V46.736H103.704ZM101.752 46.736V44.4H102.904V46.736H101.752ZM99.64 46.736V44.4H100.952V46.736H99.64ZM104.888 43.408V43.424H98.696V51.088H99.64V47.696H100.952V50.704H101.752V47.696H102.904V50.688H103.704V47.696H104.888V50.064C104.888 50.192 104.84 50.224 104.728 50.224H103.976C104.088 50.464 104.216 50.848 104.264 51.088C104.808 51.088 105.192 51.088 105.464 50.928C105.752 50.768 105.816 50.496 105.816 50.08V43.408H104.888ZM120.43 39.632H116.19V38.032H120.43V39.632ZM121.582 37.136H115.086V40.528H121.582V37.136ZM114.142 46.24L112.414 46.544V44.464H113.87V43.376H112.414V40.944H111.31V43.376H109.774C110.222 42.288 110.67 40.992 111.038 39.648H113.982V38.512H111.342C111.486 37.968 111.598 37.408 111.71 36.864L110.542 36.624C110.462 37.264 110.334 37.888 110.19 38.512H108.19V39.648H109.934C109.598 40.912 109.262 41.968 109.102 42.352C108.83 43.056 108.622 43.552 108.35 43.632C108.494 43.92 108.654 44.448 108.718 44.688C108.846 44.56 109.342 44.464 109.87 44.464H111.31V46.752C110.094 46.976 108.942 47.168 108.062 47.312L108.334 48.464C109.198 48.288 110.222 48.08 111.31 47.872V51.168H112.414V47.648C113.006 47.52 113.614 47.392 114.222 47.28L114.142 46.24ZM116.334 47.024H120.366V48.304C118.942 48.4 117.566 48.512 116.334 48.592V47.024ZM120.366 42.464V43.84H116.334V42.464H120.366ZM116.334 44.736H120.366V46.128H116.334V44.736ZM122.67 48.128L121.486 48.224V42.464H122.574V41.472H114.158V42.464H115.23V48.656L113.774 48.752L113.966 49.824C115.662 49.696 117.998 49.504 120.366 49.312V51.232H121.486V49.216L122.67 49.12V48.128ZM138.148 39.344H132.356V36.608H131.172V39.344H125.38V51.248H126.548V40.512H131.156C131.06 42.608 130.484 45.248 126.964 47.12C127.236 47.328 127.636 47.76 127.812 48.016C129.956 46.752 131.108 45.264 131.7 43.728C133.172 45.104 134.772 46.736 135.588 47.808L136.564 47.04C135.588 45.856 133.636 43.984 132.052 42.592C132.228 41.872 132.308 41.168 132.34 40.512H136.98V49.632C136.98 49.92 136.884 50.016 136.596 50.032C136.26 50.048 135.172 50.048 134.052 50C134.228 50.32 134.404 50.88 134.452 51.2C135.876 51.2 136.868 51.2 137.428 50.992C137.972 50.8 138.148 50.416 138.148 49.648V39.344ZM142.65 39.168H153.546V40.976H154.746V38.08H149.098C148.906 37.6 148.57 36.976 148.282 36.496L147.066 36.784C147.29 37.168 147.53 37.664 147.706 38.08H141.498V40.976H142.65V39.168ZM149.498 40.608C150.97 41.52 152.762 42.88 153.626 43.792L154.458 43.008C153.578 42.096 151.738 40.8 150.282 39.936L149.498 40.608ZM145.45 39.92C144.522 41.088 143.018 42.208 141.594 42.928C141.85 43.136 142.25 43.6 142.426 43.824C143.882 42.992 145.498 41.68 146.554 40.288L145.45 39.92ZM144.906 45.888C146.122 45.056 147.242 44.08 148.154 43.024C149.21 44.176 150.346 45.104 151.594 45.888H144.906ZM144.826 49.632V46.96H151.386V49.632H144.826ZM148.042 41.312C146.522 43.664 143.706 45.648 140.778 46.736C141.05 47.008 141.354 47.408 141.53 47.696C142.266 47.408 142.986 47.056 143.674 46.656V51.248H144.826V50.704H151.386V51.184H152.586V46.48C153.242 46.848 153.93 47.2 154.634 47.504C154.81 47.168 155.13 46.752 155.402 46.496C152.842 45.488 150.586 44.24 148.778 42.192C148.89 42.048 148.986 41.904 149.082 41.776L148.042 41.312Z" fill="#353535"/>
<path d="M93.72 107.568H104.232V109.664H105.464V106.464H99.784C99.544 105.92 99.176 105.184 98.856 104.592L97.64 104.88C97.88 105.36 98.168 105.968 98.392 106.464H92.536V109.664H93.72V107.568ZM101.496 111.952C101.016 113.232 100.296 114.288 99.4 115.136C98.248 114.688 97.064 114.256 95.96 113.904C96.36 113.328 96.792 112.656 97.224 111.952H101.496ZM105.896 111.952V110.816H97.88C98.312 110.032 98.712 109.232 99.032 108.512L97.752 108.24C97.432 109.04 96.968 109.936 96.488 110.816H92.136V111.952H95.816C95.24 112.88 94.648 113.744 94.12 114.416L94.104 114.432C95.432 114.848 96.888 115.392 98.328 115.968C96.776 117.024 94.776 117.68 92.36 118.096C92.616 118.368 92.984 118.88 93.112 119.184C95.72 118.608 97.864 117.808 99.56 116.496C101.576 117.376 103.416 118.32 104.584 119.12L105.56 118.096C104.344 117.312 102.536 116.432 100.568 115.6C101.528 114.64 102.296 113.44 102.856 111.952H105.896ZM110.606 110.48C112.398 109.312 114.078 107.84 115.374 106.224C116.878 107.952 118.478 109.296 120.238 110.48H110.606ZM120.286 111.552V110.512C120.878 110.912 121.486 111.28 122.11 111.664C122.286 111.312 122.638 110.912 122.942 110.656C120.35 109.296 117.998 107.648 116.03 105.36C116.126 105.216 116.222 105.072 116.318 104.928L115.262 104.448C113.662 106.96 110.75 109.296 107.854 110.624C108.158 110.896 108.51 111.28 108.686 111.6C109.31 111.28 109.95 110.928 110.558 110.512V111.552H114.766V114.032H110.654V115.088H114.766V117.696H108.654V118.784H122.174V117.696H115.982V115.088H120.286V114.032H115.982V111.552H120.286ZM136.212 110.576V112.32H132.34V110.576H136.212ZM132.34 115.152V113.344H136.212V115.152H132.34ZM127.252 115.152V113.344H131.124V115.152H127.252ZM131.124 110.576V112.32H127.252V110.576H131.124ZM132.34 107.984H131.124V109.52H126.116V117.104H127.252V116.208H131.124V119.2H132.34V116.208H136.212V117.04H137.38V109.52H132.34V107.984ZM132.452 106.32L132.708 106.24C132.532 105.792 132.148 105.056 131.828 104.496L130.628 104.848C130.884 105.28 131.156 105.872 131.348 106.32H125.14V108.928H126.308V107.472H137.14V108.928H138.356V106.32H132.452ZM152.65 109.232C152.41 109.728 152.074 110.24 151.706 110.72L148.986 110.88C149.562 110 150.33 108.784 150.874 107.888H155.386V106.784H151.802L151.962 106.72C151.834 106.128 151.434 105.216 151.034 104.544L149.93 104.88C150.25 105.472 150.554 106.208 150.73 106.784H146.554V107.888H149.594C149.05 108.816 148.154 110.256 147.85 110.576C147.578 110.864 147.13 110.976 146.826 111.04C146.922 111.296 147.114 111.888 147.146 112.16C147.45 112.064 147.914 111.968 150.778 111.776C149.594 112.976 148.106 114.048 146.506 114.784C146.73 115.008 147.05 115.424 147.178 115.68C149.994 114.336 152.41 112.064 153.77 109.632L152.65 109.232ZM146.25 112.256C145.978 111.808 144.81 110.016 144.378 109.424V108.8H146.186V107.68H144.378V104.608H143.242V107.68H141.114V108.8H143.162C142.682 110.976 141.69 113.504 140.698 114.832C140.922 115.12 141.21 115.632 141.322 115.984C142.042 114.96 142.73 113.312 143.242 111.584V119.216H144.378V110.88C144.81 111.664 145.306 112.592 145.53 113.088L146.25 112.256ZM153.818 112.08C152.458 114.768 149.418 117.056 145.706 118.256C145.93 118.496 146.266 118.96 146.41 119.232C148.41 118.544 150.202 117.568 151.69 116.368C152.746 117.248 153.962 118.352 154.57 119.056L155.482 118.272C154.842 117.552 153.578 116.496 152.522 115.648C153.53 114.704 154.378 113.664 155.034 112.512L153.818 112.08Z" fill="#353535"/>
<path d="M101.72 172.408C102.728 172.952 103.944 173.768 104.552 174.328L105.288 173.512C104.664 172.952 103.416 172.184 102.424 171.688L101.72 172.408ZM103.992 176.728C103.496 178.344 102.808 179.784 101.944 181.048C101.512 179.528 101.224 177.624 101.064 175.496H106.152V174.328H100.984C100.936 173.464 100.92 172.568 100.92 171.64H99.688C99.704 172.552 99.72 173.448 99.784 174.328H93.112V178.792C93.112 180.856 92.968 183.592 91.656 185.544C91.928 185.688 92.44 186.104 92.648 186.344C94.088 184.264 94.328 181.048 94.328 178.808V178.68H97.24C97.176 181.432 97.096 182.44 96.872 182.68C96.776 182.824 96.616 182.856 96.392 182.856C96.12 182.856 95.432 182.84 94.696 182.776C94.888 183.08 95.016 183.528 95.032 183.896C95.816 183.928 96.536 183.928 96.936 183.896C97.384 183.848 97.656 183.736 97.896 183.432C98.232 183.016 98.328 181.672 98.408 178.088V177.576H94.328V175.496H99.848C100.056 178.072 100.44 180.424 101.016 182.232C99.992 183.432 98.76 184.424 97.336 185.192C97.608 185.416 98.024 185.896 98.2 186.136C99.432 185.416 100.536 184.52 101.496 183.48C102.232 185.128 103.192 186.104 104.424 186.104C105.64 186.104 106.072 185.32 106.296 182.6C105.976 182.504 105.544 182.232 105.272 181.96C105.16 184.088 104.968 184.92 104.52 184.92C103.704 184.92 102.968 184.008 102.376 182.44C103.56 180.92 104.504 179.096 105.192 177.032L103.992 176.728ZM114.318 180.44C113.47 180.664 112.59 180.904 111.758 181.128V174.632H114.078V173.496H108.254V174.632H110.59V181.448C109.614 181.688 108.734 181.912 108.03 182.072L108.334 183.288C110.014 182.824 112.302 182.184 114.462 181.544L114.318 180.44ZM118.046 175.24C118.078 174.152 118.094 173.032 118.094 171.88H116.91C116.91 173.048 116.894 174.168 116.862 175.24H114.19V176.392H116.814C116.574 180.264 115.694 183.496 112.302 185.304C112.59 185.512 112.99 185.944 113.15 186.248C116.798 184.2 117.726 180.632 117.982 176.392H121.182C120.942 182.056 120.686 184.2 120.238 184.712C120.062 184.904 119.87 184.952 119.566 184.952C119.214 184.952 118.302 184.952 117.326 184.856C117.534 185.192 117.678 185.688 117.694 186.024C118.59 186.088 119.534 186.104 120.046 186.056C120.606 185.992 120.926 185.864 121.278 185.432C121.886 184.696 122.094 182.408 122.35 175.848C122.366 175.688 122.366 175.24 122.366 175.24H118.046ZM137.476 174.104C137.028 173.528 136.1 172.536 135.412 171.832L134.5 172.408C135.188 173.144 136.084 174.152 136.516 174.76L137.476 174.104ZM135.604 179.224C135.028 180.52 134.18 181.624 133.156 182.52C132.068 181.608 131.204 180.488 130.596 179.224H135.604ZM136.404 178.008L136.18 178.072H130.82C131.012 177.528 131.204 176.952 131.38 176.376H138.58L138.596 175.224H131.7C131.956 174.136 132.164 172.984 132.34 171.752L131.012 171.56C130.868 172.856 130.644 174.072 130.34 175.224H127.46C127.876 174.392 128.34 173.32 128.612 172.296L127.364 172.056C127.076 173.272 126.484 174.568 126.292 174.888C126.116 175.24 125.94 175.464 125.716 175.528C125.844 175.8 126.036 176.392 126.116 176.648C126.26 176.472 126.804 176.376 127.812 176.376H130.036C128.98 179.688 127.22 182.296 124.308 184.072C124.596 184.28 125.012 184.712 125.188 184.984C127.252 183.704 128.756 182.072 129.86 180.104C130.5 181.304 131.3 182.344 132.244 183.224C130.884 184.184 129.284 184.856 127.636 185.24C127.844 185.496 128.132 185.96 128.26 186.264C130.036 185.784 131.716 185.048 133.188 183.992C134.612 185.064 136.356 185.832 138.388 186.28C138.548 185.944 138.868 185.464 139.124 185.224C137.172 184.856 135.492 184.184 134.1 183.24C135.476 182.008 136.548 180.424 137.204 178.408L136.404 178.008ZM155.13 175.208V174.056H146.986C147.258 173.336 147.53 172.616 147.754 171.896L146.522 171.608C146.298 172.424 146.026 173.24 145.674 174.056H141.146V175.208H145.162C144.09 177.32 142.618 179.288 140.682 180.6C140.922 180.856 141.226 181.304 141.386 181.592C142.25 181 143.018 180.296 143.706 179.512V184.76H144.89V179.24H148.282V186.248H149.466V179.24H153.066V183.224C153.066 183.448 152.986 183.512 152.714 183.528C152.474 183.528 151.546 183.544 150.522 183.512C150.682 183.832 150.858 184.264 150.906 184.584C152.282 184.6 153.13 184.584 153.61 184.392C154.106 184.216 154.25 183.88 154.25 183.24V178.12H149.466V175.976H148.282V178.12H144.794C145.434 177.208 145.994 176.232 146.474 175.208H155.13Z" fill="#353535"/>
<path d="M28.5817 102.528C30.2457 102.528 31.6137 103.008 32.6857 103.968C33.7417 104.928 34.2697 106.168 34.2697 107.688C34.2697 109.144 33.7097 110.496 32.5897 111.744C31.9657 112.416 30.7817 113.336 29.0377 114.504C27.2937 115.656 26.2297 116.664 25.8457 117.528H34.2937V120H22.3417C22.3417 118.24 22.9097 116.72 24.0457 115.44C24.6697 114.72 25.9817 113.672 27.9817 112.296C29.0217 111.576 29.8057 110.936 30.3337 110.376C31.0857 109.528 31.4617 108.624 31.4617 107.664C31.4617 106.736 31.2137 106.04 30.7177 105.576C30.2217 105.128 29.4777 104.904 28.4857 104.904C27.4297 104.904 26.6377 105.264 26.1097 105.984C25.5817 106.656 25.2937 107.672 25.2457 109.032H22.4377C22.4697 107.112 23.0297 105.568 24.1177 104.4C25.2537 103.152 26.7417 102.528 28.5817 102.528Z" fill="#1FA1FF"/>
<path d="M28.4857 170.528C30.2457 170.528 31.6457 170.944 32.6857 171.776C33.7257 172.624 34.2457 173.784 34.2457 175.256C34.2457 177.128 33.2937 178.376 31.3897 179C32.4297 179.32 33.2057 179.784 33.7177 180.392C34.2937 181.032 34.5817 181.864 34.5817 182.888C34.5817 184.472 34.0297 185.768 32.9257 186.776C31.7577 187.816 30.2457 188.336 28.3897 188.336C26.6137 188.336 25.1817 187.88 24.0937 186.968C22.8937 185.96 22.2217 184.488 22.0777 182.552H24.9337C24.9817 183.672 25.3337 184.528 25.9897 185.12C26.5977 185.68 27.3897 185.96 28.3657 185.96C29.4377 185.96 30.2937 185.656 30.9337 185.048C31.4937 184.488 31.7737 183.808 31.7737 183.008C31.7737 182.032 31.4777 181.312 30.8857 180.848C30.3257 180.384 29.4857 180.152 28.3657 180.152H27.1657V178.04H28.3657C29.3737 178.04 30.1417 177.824 30.6697 177.392C31.1817 176.96 31.4377 176.32 31.4377 175.472C31.4377 174.64 31.2057 174.008 30.7417 173.576C30.2457 173.144 29.5017 172.928 28.5097 172.928C27.5017 172.928 26.7257 173.176 26.1817 173.672C25.6057 174.168 25.2697 174.936 25.1737 175.976H22.4137C22.5577 174.232 23.1977 172.888 24.3337 171.944C25.3897 171 26.7737 170.528 28.4857 170.528Z" fill="#1FA1FF"/>
<path d="M55.5 10.5V223" stroke="url(#paint0_radial_848_2601)" stroke-width="4"/>
<circle cx="56" cy="44" r="4.5" fill="white" stroke="#1FA1FF"/>
<circle cx="56" cy="112" r="4.5" fill="white" stroke="#1FA1FF"/>
<circle cx="56" cy="180" r="4.5" fill="white" stroke="#1FA1FF"/>
<circle cx="56" cy="44" r="3" fill="#27DA84"/>
<circle cx="56" cy="112" r="3" fill="#E6E6E6"/>
<circle cx="56" cy="180" r="3" fill="#E6E6E6"/>
<defs>
<radialGradient id="paint0_radial_848_2601" cx="0" cy="0" r="1" gradientUnits="userSpaceOnUse" gradientTransform="translate(56 107.5) rotate(90) scale(157.5 0.531197)">
<stop offset="0.299393" stop-color="#1FA1FF"/>
<stop offset="1" stop-color="#1FA1FF" stop-opacity="0"/>
</radialGradient>
</defs>
</svg>
