<svg width="15" height="15" viewBox="0 0 15 15" fill="none" xmlns="http://www.w3.org/2000/svg">
<path d="M7.11958 1.17082C7.23932 0.802296 7.76068 0.802296 7.88042 1.17082L9.31856 5.59696C9.37211 5.76177 9.5257 5.87336 9.69899 5.87336L14.3529 5.87336C14.7404 5.87336 14.9015 6.3692 14.588 6.59696L10.8229 9.33247C10.6827 9.43433 10.6241 9.61487 10.6776 9.77968L12.1158 14.2058C12.2355 14.5743 11.8137 14.8808 11.5002 14.653L7.73511 11.9175C7.59492 11.8157 7.40508 11.8157 7.26489 11.9175L3.49978 14.653C3.1863 14.8808 2.76451 14.5743 2.88425 14.2058L4.32239 9.77968C4.37594 9.61487 4.31728 9.43433 4.17708 9.33247L0.411978 6.59696C0.0984928 6.3692 0.259603 5.87336 0.647093 5.87336L5.30101 5.87336C5.4743 5.87336 5.62789 5.76177 5.68144 5.59696L7.11958 1.17082Z" fill="#FFDC22"/>
</svg>
