<svg width="30" height="30" viewBox="0 0 30 30" fill="none" xmlns="http://www.w3.org/2000/svg">
<path d="M22.1111 24C22.1111 24 16.8667 20.675 16.2889 20.3425C15.6222 19.9625 15.4 19.725 15 19.725C14.5556 19.725 14.3778 20.0575 13.6667 20.485C13.1333 20.8175 7.88889 24 7.88889 24C7.4 24 7 23.5725 7 23.05V6.425C7 5.6175 7.57778 5 8.33333 5H21.6667C22.4222 5 23 5.6175 23 6.425V23.05C23 23.5725 22.6 24 22.1111 24Z" fill="#1FA1FF"/>
<rect x="12" y="7" width="12" height="7" fill="url(#paint0_linear_855_2585)"/>
<defs>
<linearGradient id="paint0_linear_855_2585" x1="22.5" y1="11.2" x2="13.5" y2="11.2" gradientUnits="userSpaceOnUse">
<stop offset="0.273928" stop-color="#BCE3FF"/>
<stop offset="1" stop-color="#BCE3FF" stop-opacity="0"/>
</linearGradient>
</defs>
</svg>
