<svg width="40" height="40" viewBox="0 0 40 40" fill="none" xmlns="http://www.w3.org/2000/svg">
<path d="M9.656 28.51H10.976V26.112H12.043V28.51H14.023V26.013H15.046V28.51H17.037V26.013H18.06V28.51H19.633V29.511H18.06V32.976H14.023V29.511H12.043V34.659H19.259V35.726H10.976V29.511H9.656V28.51ZM15.046 29.511V31.964H17.037V29.511H15.046ZM21.5 26.343H29.244V30.897H27.286C27.9973 31.6377 29.0643 32.228 30.487 32.668L30.036 33.592C29.068 33.218 28.254 32.789 27.594 32.305V36.155H26.538V31.953H27.143C26.769 31.6303 26.4427 31.2783 26.164 30.897H24.536C24.228 31.293 23.8833 31.6413 23.502 31.942H24.338C24.338 32.8293 24.206 33.581 23.942 34.197C23.6267 34.9817 22.8787 35.638 21.698 36.166L21.005 35.33C21.973 34.934 22.611 34.4427 22.919 33.856C23.139 33.4087 23.26 32.8293 23.282 32.118C22.556 32.646 21.7127 33.1043 20.752 33.493L20.191 32.58C21.621 32.1253 22.688 31.5643 23.392 30.897H21.5V26.343ZM28.243 29.984V29.038H25.856V29.984H28.243ZM24.844 29.984V29.038H22.501V29.984H24.844ZM22.501 28.18H24.844V27.267H22.501V28.18ZM25.856 27.267V28.18H28.243V27.267H25.856Z" fill="#1FA1FF"/>
<path d="M27.1111 22C27.1111 22 21.8667 18.675 21.2889 18.3425C20.6222 17.9625 20.4 17.725 20 17.725C19.5556 17.725 19.3778 18.0575 18.6667 18.485C18.1333 18.8175 12.8889 22 12.8889 22C12.4 22 12 21.5725 12 21.05V4.425C12 3.6175 12.5778 3 13.3333 3H26.6667C27.4222 3 28 3.6175 28 4.425V21.05C28 21.5725 27.6 22 27.1111 22Z" fill="#1FA1FF"/>
<rect x="17" y="5" width="12" height="7" fill="url(#paint0_linear_834_2604)"/>
<defs>
<linearGradient id="paint0_linear_834_2604" x1="27.5" y1="9.2" x2="18.5" y2="9.2" gradientUnits="userSpaceOnUse">
<stop offset="0.273928" stop-color="#BCE3FF"/>
<stop offset="1" stop-color="#BCE3FF" stop-opacity="0"/>
</linearGradient>
</defs>
</svg>
